<svg width="169" height="50" viewBox="0 0 169 50" fill="none" xmlns="http://www.w3.org/2000/svg">
<g clip-path="url(#clip0_1_242)">
<path d="M162.523 50H5.903C2.65 50 0 47.34 0 44.084V5.907C0 2.65 2.649 0 5.903 0H162.523C165.776 0 168.519 2.65 168.519 5.907V44.084C168.519 47.34 165.776 50 162.523 50Z" fill="#A6A6A6"/>
<path d="M167.31 44.0848C167.31 46.7298 165.17 48.8728 162.524 48.8728H5.90402C3.25802 48.8728 1.11102 46.7298 1.11102 44.0848V5.90579C1.11102 3.26279 3.25802 1.11279 5.90302 1.11279H162.523C165.171 1.11279 167.31 3.26279 167.31 5.90579V44.0848Z" fill="black"/>
<path d="M37.609 24.73C37.573 20.701 40.903 18.741 41.055 18.65C39.169 15.896 36.245 15.52 35.218 15.49C32.763 15.231 30.381 16.961 29.131 16.961C27.855 16.961 25.929 15.515 23.853 15.557C21.181 15.599 18.683 17.147 17.312 19.552C14.483 24.456 16.592 31.662 19.302 35.626C20.658 37.567 22.242 39.735 24.316 39.659C26.344 39.575 27.102 38.364 29.55 38.364C31.975 38.364 32.687 39.659 34.802 39.61C36.979 39.575 38.349 37.66 39.657 35.701C41.224 33.476 41.853 31.285 41.878 31.172C41.827 31.155 37.65 29.559 37.608 24.73H37.609ZM33.614 12.883C34.705 11.516 35.452 9.658 35.244 7.771C33.666 7.841 31.691 8.865 30.554 10.201C29.547 11.38 28.649 13.31 28.88 15.124C30.654 15.256 32.475 14.228 33.613 12.883H33.614Z" fill="white"/>
<path d="M66.964 39.38H64.129L62.577 34.494H57.178L55.698 39.38H52.94L58.288 22.745H61.591L66.965 39.38H66.964ZM62.108 32.444L60.704 28.1C60.556 27.656 60.277 26.611 59.867 24.966H59.817C59.653 25.674 59.39 26.719 59.027 28.1L57.648 32.444H62.108ZM80.717 33.235C80.717 35.275 80.167 36.887 79.065 38.071C78.079 39.125 76.855 39.651 75.393 39.651C73.815 39.651 72.681 39.084 71.991 37.949H71.941V44.267H69.28V31.334C69.28 30.051 69.246 28.735 69.181 27.385H71.521L71.671 29.286H71.721C72.608 27.854 73.955 27.139 75.762 27.139C77.175 27.139 78.355 27.697 79.299 28.816C80.245 29.936 80.717 31.409 80.717 33.235ZM78.005 33.333C78.005 32.165 77.743 31.203 77.216 30.445C76.641 29.655 75.868 29.26 74.9 29.26C74.243 29.26 73.646 29.48 73.113 29.914C72.579 30.351 72.23 30.922 72.066 31.63C71.984 31.96 71.942 32.23 71.942 32.443V34.443C71.942 35.315 72.21 36.051 72.744 36.653C73.278 37.253 73.972 37.553 74.826 37.553C75.828 37.553 76.609 37.166 77.166 36.393C77.726 35.62 78.006 34.6 78.006 33.333H78.005ZM94.494 33.235C94.494 35.275 93.944 36.887 92.841 38.071C91.856 39.125 90.631 39.651 89.17 39.651C87.592 39.651 86.459 39.084 85.77 37.949H85.72V44.267H83.058V31.334C83.058 30.051 83.025 28.735 82.96 27.385H85.3L85.449 29.286H85.499C86.385 27.854 87.732 27.139 89.541 27.139C90.953 27.139 92.132 27.697 93.078 28.816C94.021 29.936 94.494 31.409 94.494 33.235ZM91.783 33.333C91.783 32.165 91.519 31.203 90.993 30.445C90.417 29.655 89.647 29.26 88.677 29.26C88.019 29.26 87.424 29.48 86.889 29.914C86.355 30.351 86.007 30.922 85.843 31.63C85.763 31.96 85.72 32.23 85.72 32.443V34.443C85.72 35.315 85.987 36.051 86.519 36.653C87.053 37.253 87.747 37.553 88.603 37.553C89.606 37.553 90.386 37.166 90.943 36.393C91.503 35.62 91.783 34.6 91.783 33.333ZM109.898 34.715C109.898 36.13 109.408 37.281 108.422 38.17C107.34 39.141 105.833 39.626 103.897 39.626C102.11 39.626 100.677 39.281 99.592 38.59L100.209 36.369C101.377 37.076 102.659 37.431 104.056 37.431C105.058 37.431 105.838 37.204 106.399 36.751C106.957 36.299 107.235 35.691 107.235 34.934C107.235 34.259 107.005 33.69 106.545 33.229C106.087 32.768 105.322 32.339 104.253 31.943C101.345 30.856 99.892 29.265 99.892 27.173C99.892 25.805 100.401 24.683 101.421 23.811C102.437 22.938 103.792 22.501 105.488 22.501C106.999 22.501 108.255 22.765 109.258 23.291L108.592 25.464C107.656 24.954 106.597 24.699 105.412 24.699C104.477 24.699 103.745 24.93 103.221 25.39C102.778 25.801 102.555 26.303 102.555 26.896C102.555 27.554 102.809 28.098 103.318 28.525C103.761 28.92 104.566 29.347 105.735 29.809C107.165 30.385 108.214 31.059 108.889 31.831C109.562 32.601 109.898 33.565 109.898 34.715ZM118.697 29.385H115.764V35.209C115.764 36.69 116.28 37.43 117.316 37.43C117.792 37.43 118.186 37.389 118.498 37.306L118.572 39.33C118.048 39.526 117.358 39.625 116.502 39.625C115.452 39.625 114.63 39.304 114.037 38.663C113.447 38.02 113.15 36.943 113.15 35.429V29.383H111.402V27.383H113.15V25.186L115.764 24.396V27.383H118.697V29.385ZM131.933 33.284C131.933 35.127 131.406 36.641 130.355 37.825C129.252 39.044 127.789 39.651 125.965 39.651C124.208 39.651 122.809 39.067 121.765 37.9C120.722 36.732 120.2 35.259 120.2 33.482C120.2 31.624 120.737 30.102 121.814 28.918C122.888 27.732 124.338 27.14 126.163 27.14C127.921 27.14 129.335 27.724 130.403 28.893C131.423 30.026 131.933 31.49 131.933 33.283V33.284ZM129.171 33.37C129.171 32.264 128.935 31.315 128.457 30.524C127.899 29.566 127.102 29.089 126.068 29.089C124.998 29.089 124.186 29.567 123.628 30.524C123.15 31.316 122.914 32.28 122.914 33.42C122.914 34.526 123.15 35.475 123.628 36.265C124.203 37.222 125.008 37.7 126.044 37.7C127.06 37.7 127.858 37.213 128.434 36.24C128.924 35.434 129.171 34.475 129.171 33.37ZM140.583 29.729C140.32 29.68 140.039 29.655 139.744 29.655C138.808 29.655 138.084 30.009 137.574 30.717C137.132 31.342 136.909 32.132 136.909 33.087V39.38H134.249L134.274 31.163C134.274 29.78 134.241 28.521 134.174 27.386H136.493L136.59 29.681H136.664C136.944 28.893 137.388 28.258 137.994 27.781C138.587 27.353 139.228 27.139 139.918 27.139C140.164 27.139 140.386 27.156 140.583 27.187V29.73V29.729ZM152.486 32.815C152.486 33.293 152.454 33.695 152.388 34.024H144.404C144.435 35.209 144.821 36.115 145.563 36.74C146.235 37.299 147.105 37.579 148.174 37.579C149.356 37.579 150.434 37.39 151.404 37.011L151.821 38.861C150.688 39.356 149.35 39.602 147.806 39.602C145.948 39.602 144.49 39.055 143.429 37.962C142.371 36.867 141.84 35.399 141.84 33.556C141.84 31.748 142.333 30.241 143.32 29.04C144.354 27.758 145.751 27.116 147.509 27.116C149.235 27.116 150.542 27.758 151.429 29.04C152.132 30.059 152.486 31.319 152.486 32.815ZM149.948 32.124C149.965 31.334 149.792 30.651 149.431 30.075C148.971 29.334 148.263 28.964 147.311 28.964C146.441 28.964 145.732 29.325 145.191 30.05C144.749 30.626 144.485 31.318 144.404 32.123H149.948V32.124Z" fill="white"/>
<path d="M61.228 12.5108C61.228 13.9818 60.788 15.0898 59.908 15.8338C59.092 16.5198 57.934 16.8638 56.433 16.8638C55.689 16.8638 55.053 16.8308 54.52 16.7658V8.72685C55.215 8.61485 55.964 8.55685 56.773 8.55685C58.203 8.55685 59.28 8.86885 60.006 9.49085C60.82 10.1948 61.228 11.2008 61.228 12.5108ZM59.848 12.5478C59.848 11.5938 59.597 10.8618 59.092 10.3518C58.588 9.84385 57.852 9.58885 56.882 9.58885C56.47 9.58885 56.119 9.61585 55.828 9.67385V15.7848C55.989 15.8098 56.284 15.8208 56.712 15.8208C57.713 15.8208 58.486 15.5428 59.03 14.9848C59.574 14.4268 59.849 13.6148 59.849 12.5468L59.848 12.5478ZM68.542 13.7958C68.542 14.7018 68.283 15.4448 67.767 16.0268C67.225 16.6268 66.507 16.9248 65.611 16.9248C64.747 16.9248 64.059 16.6388 63.546 16.0638C63.034 15.4898 62.778 14.7658 62.778 13.8938C62.778 12.9808 63.042 12.2318 63.571 11.6508C64.101 11.0698 64.812 10.7788 65.708 10.7788C66.572 10.7788 67.266 11.0648 67.792 11.6388C68.291 12.1958 68.542 12.9158 68.542 13.7958ZM67.185 13.8388C67.185 13.2948 67.068 12.8288 66.835 12.4398C66.56 11.9698 66.169 11.7348 65.661 11.7348C65.135 11.7348 64.736 11.9698 64.461 12.4398C64.227 12.8288 64.111 13.3018 64.111 13.8618C64.111 14.4058 64.228 14.8718 64.461 15.2618C64.745 15.7318 65.139 15.9658 65.648 15.9658C66.148 15.9658 66.54 15.7268 66.822 15.2488C67.064 14.8528 67.185 14.3828 67.185 13.8388ZM78.348 10.8988L76.508 16.7908H75.308L74.546 14.2318C74.353 13.5938 74.196 12.9588 74.073 12.3288H74.049C73.936 12.9758 73.779 13.6098 73.576 14.2328L72.766 16.7908H71.554L69.823 10.8998H71.167L71.832 13.7008C71.993 14.3628 72.126 14.9948 72.232 15.5918H72.255C72.353 15.0998 72.514 14.4718 72.741 13.7138L73.576 10.8998H74.642L75.442 13.6518C75.636 14.3238 75.793 14.9698 75.914 15.5918H75.95C76.039 14.9858 76.173 14.3398 76.35 13.6518L77.064 10.8998H78.348V10.8988ZM85.13 16.7908H83.822V13.4158C83.822 12.3758 83.428 11.8558 82.636 11.8558C82.248 11.8558 81.935 11.9988 81.691 12.2848C81.451 12.5708 81.328 12.9088 81.328 13.2948V16.7898H80.02V12.5828C80.02 12.0648 80.004 11.5028 79.972 10.8958H81.122L81.183 11.8168H81.219C81.372 11.5308 81.599 11.2948 81.897 11.1068C82.252 10.8868 82.649 10.7748 83.083 10.7748C83.633 10.7748 84.089 10.9528 84.453 11.3088C84.904 11.7448 85.13 12.3958 85.13 13.2608V16.7908ZM88.738 16.7908H87.431V8.19485H88.738V16.7908ZM96.44 13.7958C96.44 14.7018 96.181 15.4448 95.665 16.0268C95.123 16.6268 94.404 16.9248 93.509 16.9248C92.644 16.9248 91.956 16.6388 91.444 16.0638C90.932 15.4898 90.676 14.7658 90.676 13.8938C90.676 12.9808 90.94 12.2318 91.469 11.6508C91.999 11.0698 92.709 10.7788 93.605 10.7788C94.47 10.7788 95.163 11.0648 95.69 11.6388C96.189 12.1958 96.44 12.9158 96.44 13.7958ZM95.082 13.8388C95.082 13.2948 94.964 12.8288 94.731 12.4398C94.457 11.9698 94.066 11.7348 93.559 11.7348C93.032 11.7348 92.632 11.9698 92.359 12.4398C92.124 12.8288 92.009 13.3018 92.009 13.8618C92.009 14.4058 92.126 14.8718 92.359 15.2618C92.642 15.7318 93.037 15.9658 93.546 15.9658C94.046 15.9658 94.436 15.7268 94.718 15.2488C94.962 14.8528 95.082 14.3828 95.082 13.8388ZM102.771 16.7908H101.596L101.499 16.1128H101.463C101.061 16.6528 100.488 16.9248 99.744 16.9248C99.188 16.9248 98.739 16.7458 98.401 16.3908C98.094 16.0688 97.941 15.6678 97.941 15.1908C97.941 14.4708 98.24 13.9228 98.843 13.5428C99.444 13.1628 100.291 12.9758 101.38 12.9848V12.8748C101.38 12.0988 100.974 11.7108 100.158 11.7108C99.578 11.7108 99.066 11.8568 98.624 12.1468L98.358 11.2868C98.905 10.9488 99.58 10.7788 100.377 10.7788C101.915 10.7788 102.687 11.5908 102.687 13.2158V15.3858C102.687 15.9748 102.715 16.4438 102.771 16.7908ZM101.413 14.7658V13.8568C99.97 13.8318 99.248 14.2288 99.248 15.0448C99.248 15.3528 99.331 15.5818 99.499 15.7358C99.668 15.8898 99.883 15.9658 100.139 15.9658C100.426 15.9658 100.694 15.8748 100.939 15.6938C101.184 15.5108 101.336 15.2798 101.392 14.9958C101.405 14.9318 101.412 14.8548 101.412 14.7658H101.413ZM110.205 16.7908H109.044L108.983 15.8448H108.946C108.576 16.5648 107.944 16.9248 107.056 16.9248C106.347 16.9248 105.757 16.6458 105.289 16.0888C104.821 15.5308 104.587 14.8068 104.587 13.9188C104.587 12.9648 104.841 12.1928 105.35 11.6028C105.843 11.0528 106.447 10.7778 107.166 10.7778C107.956 10.7778 108.509 11.0438 108.824 11.5778H108.849V8.19385H110.159V15.2028C110.159 15.7768 110.173 16.3048 110.205 16.7898V16.7908ZM108.849 14.3058V13.3238C108.849 13.1538 108.836 13.0158 108.813 12.9108C108.739 12.5958 108.581 12.3308 108.34 12.1178C108.096 11.9038 107.803 11.7958 107.465 11.7958C106.977 11.7958 106.595 11.9898 106.314 12.3788C106.035 12.7678 105.894 13.2638 105.894 13.8698C105.894 14.4518 106.028 14.9248 106.296 15.2888C106.58 15.6758 106.962 15.8698 107.44 15.8698C107.87 15.8698 108.212 15.7088 108.473 15.3848C108.725 15.0858 108.849 14.7258 108.849 14.3058ZM121.393 13.7958C121.393 14.7018 121.135 15.4448 120.618 16.0268C120.076 16.6268 119.36 16.9248 118.462 16.9248C117.599 16.9248 116.912 16.6388 116.397 16.0638C115.886 15.4898 115.63 14.7658 115.63 13.8938C115.63 12.9808 115.893 12.2318 116.422 11.6508C116.952 11.0698 117.663 10.7788 118.561 10.7788C119.423 10.7788 120.118 11.0648 120.643 11.6388C121.143 12.1958 121.393 12.9158 121.393 13.7958ZM120.037 13.8388C120.037 13.2948 119.92 12.8288 119.687 12.4398C119.411 11.9698 119.021 11.7348 118.512 11.7348C117.988 11.7348 117.588 11.9698 117.312 12.4398C117.078 12.8288 116.962 13.3018 116.962 13.8618C116.962 14.4058 117.079 14.8718 117.312 15.2618C117.596 15.7318 117.99 15.9658 118.499 15.9658C118.999 15.9658 119.392 15.7268 119.674 15.2488C119.915 14.8528 120.037 14.3828 120.037 13.8388ZM128.427 16.7908H127.12V13.4158C127.12 12.3758 126.726 11.8558 125.933 11.8558C125.545 11.8558 125.231 11.9988 124.989 12.2848C124.747 12.5708 124.626 12.9088 124.626 13.2948V16.7898H123.316V12.5828C123.316 12.0648 123.302 11.5028 123.27 10.8958H124.419L124.48 11.8168H124.516C124.67 11.5308 124.896 11.2948 125.194 11.1068C125.55 10.8868 125.945 10.7748 126.381 10.7748C126.929 10.7748 127.386 10.9528 127.749 11.3088C128.202 11.7448 128.427 12.3958 128.427 13.2608V16.7908ZM137.231 11.8798H135.791V14.7418C135.791 15.4698 136.047 15.8338 136.553 15.8338C136.788 15.8338 136.983 15.8138 137.136 15.7728L137.17 16.7658C136.912 16.8638 136.572 16.9118 136.154 16.9118C135.637 16.9118 135.235 16.7548 134.944 16.4398C134.652 16.1248 134.507 15.5948 134.507 14.8508V11.8798H133.647V10.8988H134.507V9.81885L135.789 9.43085V10.8968H137.23V11.8798H137.231ZM144.156 16.7908H142.847V13.4408C142.847 12.3848 142.453 11.8558 141.663 11.8558C141.056 11.8558 140.642 12.1618 140.414 12.7748C140.376 12.9038 140.354 13.0608 140.354 13.2458V16.7898H139.046V8.19485H140.353V11.7458H140.378C140.79 11.0998 141.381 10.7768 142.146 10.7768C142.687 10.7768 143.136 10.9548 143.491 11.3108C143.935 11.7548 144.157 12.4148 144.157 13.2868V16.7908H144.156ZM151.301 13.5658C151.301 13.8008 151.283 13.9988 151.252 14.1598H147.329C147.346 14.7418 147.533 15.1858 147.897 15.4938C148.229 15.7688 148.657 15.9058 149.181 15.9058C149.761 15.9058 150.291 15.8138 150.768 15.6268L150.972 16.5368C150.414 16.7798 149.758 16.9008 148.998 16.9008C148.086 16.9008 147.368 16.6328 146.849 16.0948C146.327 15.5568 146.069 14.8358 146.069 13.9308C146.069 13.0428 146.31 12.3028 146.796 11.7128C147.302 11.0828 147.988 10.7668 148.853 10.7668C149.699 10.7668 150.342 11.0828 150.776 11.7128C151.127 12.2128 151.301 12.8308 151.301 13.5658ZM150.052 13.2278C150.062 12.8378 149.976 12.5038 149.799 12.2208C149.572 11.8568 149.226 11.6748 148.758 11.6748C148.331 11.6748 147.983 11.8528 147.717 12.2088C147.5 12.4928 147.371 12.8308 147.329 13.2278H150.052Z" fill="white"/>
</g>
<defs>
<clipPath id="clip0_1_242">
<rect width="169" height="50" fill="white"/>
</clipPath>
</defs>
</svg>
